<svg width="387" height="192" viewBox="0 0 387 192" fill="none" xmlns="http://www.w3.org/2000/svg">
<path d="M11 29C11 23.4772 15.4772 19 21 19H273.303C281.487 19 286.206 28.2943 281.376 34.9013L172.46 183.901C170.577 186.477 167.578 188 164.387 188H21C15.4772 188 11 183.523 11 178L11 29Z" fill="black"/>
<rect x="313.314" y="15" width="24" height="193.881" rx="10" transform="rotate(32.3902 313.314 15)" fill="black"/>
<rect x="366.219" y="15" width="24" height="193.823" rx="10" transform="rotate(32.3902 366.219 15)" fill="black"/>
<rect x="362.897" width="24" height="193.953" rx="10" transform="rotate(32.3902 362.897 0)" fill="#C187F1"/>
<path d="M1.61753e-05 14C1.67371e-05 8.47716 4.47717 4 10 4H262.303C270.487 4 275.206 13.2943 270.376 19.9013L161.46 168.901C159.577 171.477 156.578 173 153.387 173H10C4.47716 173 4.55466e-07 168.523 1.01731e-06 163L1.61753e-05 14Z" fill="#C187F1"/>
<path d="M33.7919 71.284C35.6866 71.284 37.2912 71.342 38.6059 71.458C39.9592 71.5353 41.1966 71.6707 42.3179 71.864C43.4392 72.0573 44.5992 72.328 45.7979 72.676L45.1019 79.172C43.8259 79.0947 42.6466 79.0367 41.5639 78.998C40.5199 78.9593 39.3792 78.94 38.1419 78.94C36.9432 78.9013 35.4932 78.882 33.7919 78.882C31.8199 78.882 30.2732 79.2687 29.1519 80.042C28.0692 80.8153 27.2959 82.1687 26.8319 84.102C26.3679 85.9967 26.1359 88.626 26.1359 91.99C26.1359 95.354 26.3679 98.0027 26.8319 99.936C27.2959 101.831 28.0692 103.165 29.1519 103.938C30.2732 104.711 31.8199 105.098 33.7919 105.098C36.4599 105.098 38.7026 105.059 40.5199 104.982C42.3372 104.905 44.1352 104.769 45.9139 104.576L46.6679 111.072C44.8119 111.652 42.9172 112.058 40.9839 112.29C39.0506 112.561 36.6532 112.696 33.7919 112.696C29.6546 112.696 26.3292 112.039 23.8159 110.724C21.3412 109.371 19.5432 107.186 18.4219 104.17C17.3392 101.154 16.7979 97.094 16.7979 91.99C16.7979 86.886 17.3392 82.826 18.4219 79.81C19.5432 76.794 21.3412 74.6287 23.8159 73.314C26.3292 71.9607 29.6546 71.284 33.7919 71.284ZM58.4355 83.348L59.4795 89.032L60.2915 89.786V112H51.7075V83.348H58.4355ZM72.4135 82.594L71.6015 90.54H69.2235C67.8702 90.54 66.4589 90.7333 64.9895 91.12C63.5202 91.5067 61.6642 92.0867 59.4215 92.86L58.8415 88.046C60.8522 86.2673 62.8822 84.914 64.9315 83.986C66.9809 83.058 68.9722 82.594 70.9055 82.594H72.4135ZM89.5784 82.594C94.4117 82.594 97.8724 83.4253 99.9604 85.088C102.087 86.712 103.15 89.148 103.15 92.396C103.189 95.0253 102.532 96.9973 101.178 98.312C99.825 99.588 97.4857 100.226 94.1604 100.226H78.1524V95.412H91.7824C93.097 95.412 93.9284 95.1413 94.2764 94.6C94.663 94.02 94.8564 93.2273 94.8564 92.222C94.8177 90.8687 94.4117 89.9407 93.6384 89.438C92.9037 88.8967 91.647 88.626 89.8684 88.626C88.283 88.626 87.0457 88.8387 86.1564 89.264C85.267 89.6893 84.6484 90.5013 84.3004 91.7C83.9524 92.8987 83.7784 94.6387 83.7784 96.92C83.7784 99.3173 83.991 101.173 84.4164 102.488C84.8417 103.764 85.557 104.653 86.5624 105.156C87.6064 105.659 89.037 105.91 90.8544 105.91C92.169 105.91 93.793 105.871 95.7264 105.794C97.6984 105.678 99.6704 105.504 101.642 105.272L102.454 110.55C101.333 111.091 100.057 111.517 98.6264 111.826C97.1957 112.135 95.7264 112.348 94.2184 112.464C92.7104 112.619 91.2604 112.696 89.8684 112.696C86.2337 112.696 83.295 112.174 81.0524 111.13C78.8484 110.047 77.2437 108.404 76.2384 106.2C75.2717 103.996 74.7884 101.173 74.7884 97.732C74.7884 93.9813 75.291 91.004 76.2964 88.8C77.3017 86.596 78.887 85.0107 81.0524 84.044C83.2177 83.0773 86.0597 82.594 89.5784 82.594ZM123.883 82.594C126.28 82.594 128.31 82.9227 129.973 83.58C131.635 84.1987 132.892 85.2813 133.743 86.828C134.632 88.336 135.077 90.424 135.077 93.092V112H128.233L127.015 105.794L126.435 104.924V93.034C126.435 91.6807 126.106 90.6947 125.449 90.076C124.83 89.4573 123.631 89.148 121.853 89.148C120.383 89.148 118.547 89.206 116.343 89.322C114.139 89.3993 111.877 89.5153 109.557 89.67L108.745 83.986C110.137 83.7153 111.741 83.4833 113.559 83.29C115.376 83.0967 117.193 82.942 119.011 82.826C120.828 82.6713 122.452 82.594 123.883 82.594ZM131.539 94.368L131.481 99.182L118.721 99.24C117.677 99.24 116.923 99.4913 116.459 99.994C116.033 100.497 115.821 101.173 115.821 102.024V103.416C115.821 104.383 116.091 105.137 116.633 105.678C117.174 106.181 118.044 106.432 119.243 106.432C120.248 106.432 121.331 106.219 122.491 105.794C123.689 105.369 124.869 104.769 126.029 103.996C127.189 103.223 128.213 102.314 129.103 101.27V104.982C128.755 105.562 128.233 106.297 127.537 107.186C126.879 108.037 126.029 108.887 124.985 109.738C123.941 110.55 122.723 111.246 121.331 111.826C119.939 112.406 118.353 112.696 116.575 112.696C114.835 112.696 113.269 112.387 111.877 111.768C110.485 111.149 109.383 110.241 108.571 109.042C107.759 107.843 107.353 106.355 107.353 104.576V101.618C107.353 99.3367 108.126 97.558 109.673 96.282C111.219 95.006 113.346 94.368 116.053 94.368H131.539ZM153.017 75.402V102.836C153.017 103.88 153.249 104.634 153.713 105.098C154.215 105.523 155.027 105.736 156.149 105.736H159.861L160.789 111.536C160.093 111.768 159.242 111.961 158.237 112.116C157.231 112.309 156.226 112.445 155.221 112.522C154.215 112.638 153.365 112.696 152.669 112.696C150.078 112.696 148.048 112 146.579 110.608C145.148 109.216 144.433 107.263 144.433 104.75L144.375 75.402H153.017ZM161.021 83.348V88.974H139.387V83.638L144.955 83.348H161.021ZM179.184 82.594C184.017 82.594 187.478 83.4253 189.566 85.088C191.693 86.712 192.756 89.148 192.756 92.396C192.795 95.0253 192.137 96.9973 190.784 98.312C189.431 99.588 187.091 100.226 183.766 100.226H167.758V95.412H181.388C182.703 95.412 183.534 95.1413 183.882 94.6C184.269 94.02 184.462 93.2273 184.462 92.222C184.423 90.8687 184.017 89.9407 183.244 89.438C182.509 88.8967 181.253 88.626 179.474 88.626C177.889 88.626 176.651 88.8387 175.762 89.264C174.873 89.6893 174.254 90.5013 173.906 91.7C173.558 92.8987 173.384 94.6387 173.384 96.92C173.384 99.3173 173.597 101.173 174.022 102.488C174.447 103.764 175.163 104.653 176.168 105.156C177.212 105.659 178.643 105.91 180.46 105.91C181.775 105.91 183.399 105.871 185.332 105.794C187.304 105.678 189.276 105.504 191.248 105.272L192.06 110.55C190.939 111.091 189.663 111.517 188.232 111.826C186.801 112.135 185.332 112.348 183.824 112.464C182.316 112.619 180.866 112.696 179.474 112.696C175.839 112.696 172.901 112.174 170.658 111.13C168.454 110.047 166.849 108.404 165.844 106.2C164.877 103.996 164.394 101.173 164.394 97.732C164.394 93.9813 164.897 91.004 165.902 88.8C166.907 86.596 168.493 85.0107 170.658 84.044C172.823 83.0773 175.665 82.594 179.184 82.594Z" fill="white"/>
<rect x="310.358" width="24" height="193.788" rx="10" transform="rotate(32.3902 310.358 0)" fill="#C187F1"/>
</svg>
